<?xml version="1.0" standalone="no"?>
<!DOCTYPE svg PUBLIC "-//W3C//DTD SVG 20010904//EN"
 "http://www.w3.org/TR/2001/REC-SVG-20010904/DTD/svg10.dtd">
<svg version="1.0" xmlns="http://www.w3.org/2000/svg"
 width="300.000000pt" height="361.000000pt" viewBox="0 0 300.000000 361.000000"
 preserveAspectRatio="xMidYMid meet">
<metadata>
Created by potrace 1.16, written by Peter Selinger 2001-2019
</metadata>
<g transform="translate(0.000000,361.000000) scale(0.100000,-0.100000)"
fill="#000000" stroke="none">
<path d="M1550 3485 c0 -8 -22 -40 -50 -70 -71 -78 -68 -122 12 -194 18 -16
31 -40 34 -62 6 -33 2 -41 -45 -93 -39 -43 -51 -64 -51 -89 0 -34 33 -97 50
-97 15 0 50 -61 50 -87 0 -13 -22 -47 -51 -79 -50 -55 -51 -58 -46 -104 l6
-47 -68 -6 c-86 -7 -216 -50 -293 -97 -175 -106 -294 -257 -357 -455 -16 -49
-47 -134 -69 -187 -23 -54 -40 -98 -38 -98 2 0 19 6 38 14 l34 15 12 -79 c41
-261 201 -478 437 -590 98 -47 182 -68 303 -76 l92 -7 -17 -26 c-9 -14 -25
-32 -35 -39 -26 -19 -48 -66 -48 -101 0 -23 13 -45 50 -86 29 -32 50 -65 50
-78 0 -26 -35 -87 -50 -87 -17 0 -50 -63 -50 -97 0 -25 12 -46 50 -88 64 -71
65 -106 1 -165 -35 -32 -51 -62 -51 -95 0 -30 27 -82 47 -89 19 -8 16 12 -7
41 -33 42 -26 76 25 127 72 74 72 115 0 196 -60 68 -60 96 0 157 72 73 72 112
0 193 -61 68 -60 93 5 165 28 30 50 61 50 69 0 9 18 16 51 20 74 10 209 62
281 108 160 102 297 286 339 454 7 27 34 100 60 162 26 61 46 112 44 112 -1 0
-18 -7 -37 -14 l-35 -15 -17 97 c-60 343 -331 598 -681 642 -49 6 -93 16 -97
23 -19 30 -7 67 37 117 72 81 72 122 0 196 -60 60 -60 87 0 154 72 81 72 123
0 197 -58 59 -59 88 -6 146 54 59 77 107 51 107 -5 0 -10 -7 -10 -15z m148
-971 c144 -42 241 -102 348 -217 107 -115 177 -265 199 -429 7 -52 3 -55 -35
-33 -14 8 -28 14 -32 15 -4 0 9 -37 28 -82 39 -92 39 -115 4 -223 -63 -189
-205 -352 -385 -440 -120 -59 -204 -78 -340 -78 -385 0 -700 282 -751 671 l-7
52 36 -15 c20 -8 38 -15 41 -15 2 0 -11 36 -30 79 -39 89 -40 101 -19 181 20
78 58 161 105 229 191 277 519 396 838 305z"/>
</g>
</svg>
